# xmcd
#
# Track frame offsets:
#	150
#	13096
#	50187
#	64020
#	75655
#	92327
#	125258
#	161022
#	203642
#
# Disc length: 2959 seconds
#
# Revision: 1
# Processed by: cddbd v1.5.2PL0 Copyright (c) Steve Scherf et al.
# Submitted via: audiograbber 1.83.01
#
DISCID=6d0b8d09
DTITLE=Grateful Dead - 80-10-31 Radio City Music Hall, New York NY
DYEAR=1900
DGENRE=
TTITLE0=Stage Banter
TTITLE1=Heaven Help The Fool
TTITLE2=Sage and Spirit
TTITLE3=Little Sadie
TTITLE4=Monkey and The Engineer
TTITLE5=It Must Have Been The Roses
TTITLE6=Cassidy
TTITLE7=Bird Song
TTITLE8=Ripple
EXTD=
EXTT0=
EXTT1=
EXTT2=
EXTT3=
EXTT4=
EXTT5=
EXTT6=
EXTT7=
EXTT8=
PLAYORDER=
